<?xml version="1.0" standalone="no"?>
<!DOCTYPE svg PUBLIC "-//W3C//DTD SVG 20010904//EN"
 "http://www.w3.org/TR/2001/REC-SVG-20010904/DTD/svg10.dtd">
<svg version="1.0" xmlns="http://www.w3.org/2000/svg"
 width="1080.000000pt" height="806.000000pt" viewBox="0 0 1080.000000 806.000000"
 preserveAspectRatio="xMidYMid meet">

<g transform="translate(0.000000,806.000000) scale(0.100000,-0.100000)"
fill="#000000" stroke="none">
<path d="M5190 7209 c-226 -22 -403 -51 -530 -86 -30 -8 -68 -18 -85 -23 -115
-31 -318 -107 -442 -167 -169 -81 -428 -238 -542 -329 -174 -138 -388 -347
-507 -494 -79 -97 -227 -320 -290 -435 -116 -211 -178 -363 -263 -640 -43
-141 -76 -343 -98 -599 -14 -171 -15 -221 -4 -360 24 -315 77 -594 150 -791
98 -261 183 -442 295 -623 56 -90 178 -259 234 -324 157 -183 321 -341 482
-464 242 -186 563 -360 810 -440 25 -8 54 -19 65 -24 11 -5 38 -14 60 -21 22
-6 51 -15 65 -20 98 -31 310 -70 510 -94 327 -39 787 0 1100 92 513 150 921
388 1285 747 160 158 230 238 323 368 190 265 335 547 428 837 13 42 28 90 34
106 33 106 76 334 96 520 40 372 -10 856 -124 1200 -94 284 -206 512 -373 760
-431 641 -1109 1096 -1861 1249 -269 55 -595 77 -818 55z m117 -1539 c199 -26
292 -61 443 -163 147 -100 365 -307 429 -406 40 -63 41 -66 41 -153 0 -168
-66 -347 -203 -553 -259 -389 -675 -676 -1222 -845 -52 -15 -187 -41 -269 -50
-44 -5 -85 -15 -92 -22 -39 -42 -185 -549 -219 -759 -9 -56 -24 -63 -86 -39
-68 25 -144 81 -169 123 -40 65 -22 228 57 527 51 192 51 201 14 223 -20 12
-41 40 -61 83 -35 73 -37 121 -5 116 11 -1 54 -5 95 -8 l75 -6 63 188 c85 253
159 467 182 532 19 51 40 107 79 215 32 89 83 221 96 252 8 17 23 55 35 85 31
78 37 83 85 75 166 -26 285 -121 285 -228 0 -46 -26 -135 -64 -220 -13 -29
-43 -97 -66 -152 -39 -94 -51 -120 -99 -227 -11 -24 -51 -124 -91 -223 -39
-99 -78 -193 -86 -209 -16 -32 -18 -56 -6 -56 17 0 167 42 241 67 155 53 404
197 546 316 84 70 207 199 272 285 172 227 249 435 241 648 l-3 96 -39 34
c-112 97 -281 144 -517 144 -163 0 -298 -16 -455 -55 -346 -86 -684 -314 -866
-583 -117 -174 -159 -296 -174 -507 l-7 -97 -39 6 c-59 10 -127 35 -195 73
-102 57 -133 111 -133 233 0 131 62 295 173 462 213 317 543 553 972 693 234
76 541 111 742 85z m1430 -34 c94 -44 183 -146 183 -209 0 -25 -32 -132 -55
-182 -7 -16 -28 -66 -45 -110 -18 -44 -41 -100 -52 -125 -41 -92 -57 -127 -98
-225 -23 -55 -50 -118 -60 -140 -37 -85 -79 -183 -115 -270 -20 -49 -45 -109
-56 -132 -10 -24 -19 -45 -19 -48 0 -3 -9 -25 -20 -50 -11 -25 -29 -66 -41
-91 -40 -92 -15 -79 82 42 219 273 464 504 535 504 76 0 273 -214 305 -332 44
-166 -45 -373 -234 -541 -125 -111 -304 -219 -434 -261 -52 -17 -53 -18 -53
-58 0 -100 48 -313 92 -405 34 -73 49 -78 126 -39 156 79 377 288 570 539 71
91 93 110 106 88 7 -10 -26 -93 -66 -168 -97 -182 -118 -218 -193 -331 -123
-185 -242 -319 -318 -357 -51 -25 -151 -19 -258 16 -125 41 -182 73 -236 133
-85 95 -167 303 -187 476 -8 67 -22 95 -31 65 -7 -22 -62 -168 -75 -200 -4
-11 -13 -36 -20 -55 -7 -19 -16 -44 -21 -55 -5 -11 -31 -90 -59 -175 -28 -85
-56 -160 -62 -167 -31 -38 -192 2 -252 62 -22 22 -26 32 -20 59 36 167 310
1041 432 1376 17 47 49 139 72 205 22 66 45 129 50 140 10 25 36 95 90 245 42
116 95 258 110 295 5 11 34 85 65 165 72 185 125 312 138 328 15 19 67 14 124
-12z"/>
<path d="M6886 4215 c-236 -142 -540 -437 -627 -607 l-20 -40 32 7 c19 4 40
11 49 15 8 4 38 18 65 31 167 77 378 257 482 410 69 101 115 219 85 219 -5 0
-34 -16 -66 -35z"/>
</g>
</svg>
